<svg width="604" height="23" viewBox="0 0 604 23" fill="none" xmlns="http://www.w3.org/2000/svg">
<path d="M0.93934 10.8681C0.353553 11.4538 0.353553 12.4036 0.93934 12.9894L10.4853 22.5353C11.0711 23.1211 12.0208 23.1211 12.6066 22.5353C13.1924 21.9495 13.1924 20.9998 12.6066 20.414L4.12132 11.9287L12.6066 3.44343C13.1924 2.85764 13.1924 1.9079 12.6066 1.32211C12.0208 0.736322 11.0711 0.736322 10.4853 1.32211L0.93934 10.8681ZM603.061 12.9894C603.646 12.4036 603.646 11.4538 603.061 10.8681L593.515 1.32211C592.929 0.736322 591.979 0.736322 591.393 1.32211C590.808 1.9079 590.808 2.85764 591.393 3.44343L599.879 11.9287L591.393 20.414C590.808 20.9998 590.808 21.9495 591.393 22.5353C591.979 23.1211 592.929 23.1211 593.515 22.5353L603.061 12.9894ZM2 13.4287H602V10.4287H2V13.4287Z" fill="black"/>
</svg>
