<svg width="16" height="17" viewBox="0 0 16 17" fill="none" xmlns="http://www.w3.org/2000/svg">
<g clip-path="url(#clip0_380_507)">
<path fill-rule="evenodd" clip-rule="evenodd" d="M3.5 0.5C3.63261 0.5 3.75979 0.552678 3.85355 0.646447C3.94732 0.740215 4 0.867392 4 1V1.5H12V1C12 0.867392 12.0527 0.740215 12.1464 0.646447C12.2402 0.552678 12.3674 0.5 12.5 0.5C12.6326 0.5 12.7598 0.552678 12.8536 0.646447C12.9473 0.740215 13 0.867392 13 1V1.5H14C14.5304 1.5 15.0391 1.71071 15.4142 2.08579C15.7893 2.46086 16 2.96957 16 3.5V14.5C16 15.0304 15.7893 15.5391 15.4142 15.9142C15.0391 16.2893 14.5304 16.5 14 16.5H2C1.46957 16.5 0.960859 16.2893 0.585786 15.9142C0.210714 15.5391 0 15.0304 0 14.5V3.5C0 2.96957 0.210714 2.46086 0.585786 2.08579C0.960859 1.71071 1.46957 1.5 2 1.5H3V1C3 0.867392 3.05268 0.740215 3.14645 0.646447C3.24021 0.552678 3.36739 0.5 3.5 0.5V0.5ZM1 4.5V14.5C1 14.7652 1.10536 15.0196 1.29289 15.2071C1.48043 15.3946 1.73478 15.5 2 15.5H14C14.2652 15.5 14.5196 15.3946 14.7071 15.2071C14.8946 15.0196 15 14.7652 15 14.5V4.5H1Z" fill="#3E5569"/>
<path fill-rule="evenodd" clip-rule="evenodd" d="M10.8539 7.64592C10.9005 7.69236 10.9374 7.74754 10.9626 7.80828C10.9878 7.86903 11.0008 7.93415 11.0008 7.99992C11.0008 8.06568 10.9878 8.13081 10.9626 8.19155C10.9374 8.2523 10.9005 8.30747 10.8539 8.35392L7.8539 11.3539C7.80745 11.4005 7.75228 11.4374 7.69153 11.4626C7.63079 11.4878 7.56567 11.5008 7.4999 11.5008C7.43413 11.5008 7.36901 11.4878 7.30827 11.4626C7.24752 11.4374 7.19235 11.4005 7.1459 11.3539L5.6459 9.85392C5.59941 9.80743 5.56254 9.75224 5.53738 9.6915C5.51222 9.63076 5.49927 9.56566 5.49927 9.49992C5.49927 9.43417 5.51222 9.36907 5.53738 9.30833C5.56254 9.24759 5.59941 9.19241 5.6459 9.14592C5.73979 9.05203 5.86712 8.99929 5.9999 8.99929C6.06564 8.99929 6.13074 9.01224 6.19148 9.03739C6.25222 9.06255 6.30741 9.09943 6.3539 9.14592L7.4999 10.2929L10.1459 7.64592C10.1923 7.59935 10.2475 7.56241 10.3083 7.5372C10.369 7.512 10.4341 7.49902 10.4999 7.49902C10.5657 7.49902 10.6308 7.512 10.6915 7.5372C10.7523 7.56241 10.8075 7.59935 10.8539 7.64592Z" fill="#3E5569"/>
</g>
<defs>
<clipPath id="clip0_380_507">
<rect width="16" height="16" fill="white" transform="translate(0 0.5)"/>
</clipPath>
</defs>
</svg>
