<svg width="16" height="17" viewBox="0 0 16 17" fill="none" xmlns="http://www.w3.org/2000/svg">
<path fill-rule="evenodd" clip-rule="evenodd" d="M6 1.5H1V15.5H6V1.5ZM15 1.5H10V6.5H15V1.5ZM15 10.5H10V15.5H15V10.5ZM0 1.5C0 1.23478 0.105357 0.98043 0.292893 0.792893C0.48043 0.605357 0.734784 0.5 1 0.5H6C6.26522 0.5 6.51957 0.605357 6.70711 0.792893C6.89464 0.98043 7 1.23478 7 1.5V15.5C7 15.7652 6.89464 16.0196 6.70711 16.2071C6.51957 16.3946 6.26522 16.5 6 16.5H1C0.734784 16.5 0.48043 16.3946 0.292893 16.2071C0.105357 16.0196 0 15.7652 0 15.5V1.5ZM9 1.5C9 1.23478 9.10536 0.98043 9.29289 0.792893C9.48043 0.605357 9.73478 0.5 10 0.5H15C15.2652 0.5 15.5196 0.605357 15.7071 0.792893C15.8946 0.98043 16 1.23478 16 1.5V6.5C16 6.76522 15.8946 7.01957 15.7071 7.20711C15.5196 7.39464 15.2652 7.5 15 7.5H10C9.73478 7.5 9.48043 7.39464 9.29289 7.20711C9.10536 7.01957 9 6.76522 9 6.5V1.5ZM10 9.5C9.73478 9.5 9.48043 9.60536 9.29289 9.79289C9.10536 9.98043 9 10.2348 9 10.5V15.5C9 15.7652 9.10536 16.0196 9.29289 16.2071C9.48043 16.3946 9.73478 16.5 10 16.5H15C15.2652 16.5 15.5196 16.3946 15.7071 16.2071C15.8946 16.0196 16 15.7652 16 15.5V10.5C16 10.2348 15.8946 9.98043 15.7071 9.79289C15.5196 9.60536 15.2652 9.5 15 9.5H10Z" fill="#3E5569"/>
</svg>
