<svg width="16" height="17" viewBox="0 0 16 17" fill="none" xmlns="http://www.w3.org/2000/svg">
<g clip-path="url(#clip0_380_5322)">
<path fill-rule="evenodd" clip-rule="evenodd" d="M14.778 0.585C14.8462 0.630637 14.9022 0.692369 14.9409 0.764746C14.9796 0.837123 14.9999 0.917918 15 1V8.5C15 8.59985 14.9701 8.69741 14.9141 8.78011C14.8581 8.86281 14.7787 8.92685 14.686 8.964L14.5 8.5L14.686 8.964L14.683 8.965L14.677 8.968L14.654 8.977C14.5225 9.02925 14.3902 9.07926 14.257 9.127C13.993 9.222 13.626 9.35 13.21 9.477C12.394 9.729 11.331 10 10.5 10C9.653 10 8.952 9.72 8.342 9.475L8.314 9.465C7.68 9.21 7.14 9 6.5 9C5.8 9 4.862 9.23 4.063 9.477C3.70526 9.58849 3.35078 9.71021 3 9.842V16C3 16.1326 2.94732 16.2598 2.85355 16.3536C2.75979 16.4473 2.63261 16.5 2.5 16.5C2.36739 16.5 2.24021 16.4473 2.14645 16.3536C2.05268 16.2598 2 16.1326 2 16V1C2 0.867392 2.05268 0.740215 2.14645 0.646447C2.24021 0.552678 2.36739 0.5 2.5 0.5C2.63261 0.5 2.75979 0.552678 2.85355 0.646447C2.94732 0.740215 3 0.867392 3 1V1.282C3.226 1.203 3.496 1.112 3.79 1.022C4.606 0.772 5.67 0.5 6.5 0.5C7.34 0.5 8.024 0.777 8.621 1.019L8.664 1.037C9.286 1.288 9.828 1.5 10.5 1.5C11.2 1.5 12.138 1.27 12.937 1.023C13.3923 0.880812 13.8423 0.72204 14.286 0.547L14.305 0.54L14.309 0.538H14.31L14.778 0.585ZM14 1.721C13.78 1.799 13.52 1.888 13.234 1.976C12.424 2.228 11.362 2.499 10.5 2.499C9.614 2.499 8.908 2.213 8.297 1.965L8.289 1.962C7.662 1.71 7.139 1.5 6.5 1.5C5.831 1.5 4.894 1.729 4.085 1.978C3.72011 2.09058 3.35831 2.21296 3 2.345V8.778C3.22 8.7 3.48 8.611 3.766 8.523C4.576 8.27 5.638 8 6.5 8C7.347 8 8.048 8.28 8.658 8.525L8.686 8.535C9.32 8.79 9.86 9 10.5 9C11.168 9 12.106 8.771 12.915 8.522C13.2799 8.40941 13.6417 8.28703 14 8.155V1.722V1.721Z" fill="#3E5569"/>
</g>
<defs>
<clipPath id="clip0_380_5322">
<rect width="16" height="16" fill="white" transform="translate(0 0.5)"/>
</clipPath>
</defs>
</svg>
