<svg width="16" height="17" viewBox="0 0 16 17" fill="none" xmlns="http://www.w3.org/2000/svg">
<g clip-path="url(#clip0_380_10595)">
<path fill-rule="evenodd" clip-rule="evenodd" d="M8.84431 2.13331C8.59831 1.29831 7.41631 1.29831 7.17031 2.13331L7.07631 2.45231C6.99726 2.72026 6.85927 2.96713 6.67244 3.17483C6.48562 3.38254 6.2547 3.54583 5.9966 3.65273C5.7385 3.75963 5.45975 3.80745 5.18078 3.79267C4.90181 3.77789 4.62967 3.70089 4.38431 3.56731L4.09231 3.40731C3.32831 2.99231 2.49231 3.82731 2.90831 4.59231L3.06731 4.88431C3.20089 5.12967 3.27789 5.40181 3.29267 5.68078C3.30745 5.95975 3.25963 6.2385 3.15273 6.4966C3.04583 6.7547 2.88254 6.98562 2.67483 7.17244C2.46713 7.35927 2.22026 7.49726 1.95231 7.57631L1.63331 7.67031C0.798313 7.91631 0.798313 9.09831 1.63331 9.34431L1.95231 9.43831C2.2204 9.51733 2.4674 9.65535 2.67521 9.84224C2.88302 10.0291 3.04638 10.2602 3.15329 10.5184C3.26021 10.7766 3.30798 11.0555 3.2931 11.3346C3.27823 11.6137 3.20108 11.8859 3.06731 12.1313L2.90731 12.4223C2.49231 13.1863 3.32731 14.0223 4.09231 13.6063L4.38431 13.4473C4.62974 13.3138 4.90194 13.2368 5.18097 13.2221C5.46 13.2074 5.73878 13.2553 5.9969 13.3623C6.25501 13.4693 6.48592 13.6327 6.67269 13.8405C6.85946 14.0483 6.99737 14.2953 7.07631 14.5633L7.17031 14.8813C7.41631 15.7163 8.59831 15.7163 8.84431 14.8813L8.93831 14.5623C9.01733 14.2942 9.15535 14.0472 9.34224 13.8394C9.52913 13.6316 9.76016 13.4683 10.0184 13.3613C10.2766 13.2544 10.5555 13.2066 10.8346 13.2215C11.1137 13.2364 11.3859 13.3135 11.6313 13.4473L11.9223 13.6073C12.6863 14.0223 13.5223 13.1873 13.1063 12.4223L12.9473 12.1313C12.8136 11.8858 12.7365 11.6136 12.7216 11.3344C12.7068 11.0553 12.7547 10.7763 12.8617 10.5181C12.9687 10.2599 13.1322 10.0288 13.3401 9.84199C13.548 9.65515 13.7951 9.51722 14.0633 9.43831L14.3813 9.34431C15.2163 9.09831 15.2163 7.91631 14.3813 7.67031L14.0623 7.57631C13.7944 7.49726 13.5475 7.35927 13.3398 7.17244C13.1321 6.98562 12.9688 6.7547 12.8619 6.4966C12.755 6.2385 12.7072 5.95975 12.722 5.68078C12.7367 5.40181 12.8137 5.12967 12.9473 4.88431L13.1073 4.59231C13.5223 3.82831 12.6873 2.99231 11.9223 3.40831L11.6313 3.56731C11.3859 3.70126 11.1136 3.77856 10.8343 3.79354C10.5551 3.80852 10.2761 3.76079 10.0178 3.65386C9.7594 3.54693 9.52826 3.38351 9.3413 3.17559C9.15434 2.96768 9.0163 2.72054 8.93731 2.45231L8.84331 2.13331H8.84431ZM6.21131 1.85031C6.73831 0.0603124 9.27631 0.0603124 9.80331 1.85031L9.89731 2.16931C9.93412 2.29426 9.99842 2.4094 10.0855 2.50627C10.1726 2.60314 10.2802 2.6793 10.4006 2.72916C10.5209 2.77903 10.6509 2.80133 10.781 2.79443C10.911 2.78753 11.0379 2.75162 11.1523 2.68931L11.4443 2.52931C13.0843 1.63731 14.8783 3.43031 13.9843 5.07031L13.8253 5.36231C13.763 5.47671 13.7271 5.60359 13.7202 5.73367C13.7133 5.86374 13.7356 5.99372 13.7855 6.11405C13.8353 6.23439 13.9115 6.34205 14.0084 6.42913C14.1052 6.51621 14.2204 6.58051 14.3453 6.61731L14.6643 6.71131C16.4543 7.23831 16.4543 9.77631 14.6643 10.3033L14.3453 10.3973C14.2204 10.4341 14.1052 10.4984 14.0084 10.5855C13.9115 10.6726 13.8353 10.7802 13.7855 10.9006C13.7356 11.0209 13.7133 11.1509 13.7202 11.281C13.7271 11.411 13.763 11.5379 13.8253 11.6523L13.9853 11.9443C14.8783 13.5843 13.0833 15.3783 11.4443 14.4843L11.1523 14.3253C11.0379 14.263 10.911 14.2271 10.781 14.2202C10.6509 14.2133 10.5209 14.2356 10.4006 14.2855C10.2802 14.3353 10.1726 14.4115 10.0855 14.5084C9.99842 14.6052 9.93412 14.7204 9.89731 14.8453L9.80331 15.1643C9.27631 16.9543 6.73831 16.9543 6.21131 15.1643L6.11731 14.8453C6.08051 14.7204 6.01621 14.6052 5.92913 14.5084C5.84205 14.4115 5.73439 14.3353 5.61405 14.2855C5.49372 14.2356 5.36374 14.2133 5.23367 14.2202C5.10359 14.2271 4.97671 14.263 4.86231 14.3253L4.57031 14.4853C2.93031 15.3783 1.13731 13.5833 2.03031 11.9443L2.18931 11.6523C2.25162 11.5379 2.28753 11.411 2.29443 11.281C2.30133 11.1509 2.27903 11.0209 2.22916 10.9006C2.1793 10.7802 2.10314 10.6726 2.00627 10.5855C1.9094 10.4984 1.79426 10.4341 1.66931 10.3973L1.35031 10.3033C-0.439688 9.77631 -0.439688 7.23831 1.35031 6.71131L1.66931 6.61731C1.79426 6.58051 1.9094 6.51621 2.00627 6.42913C2.10314 6.34205 2.1793 6.23439 2.22916 6.11405C2.27903 5.99372 2.30133 5.86374 2.29443 5.73367C2.28753 5.60359 2.25162 5.47671 2.18931 5.36231L2.02931 5.07031C1.13731 3.43031 2.93131 1.63731 4.57031 2.53031L4.86231 2.68931C4.97671 2.75162 5.10359 2.78753 5.23367 2.79443C5.36374 2.80133 5.49372 2.77903 5.61405 2.72916C5.73439 2.6793 5.84205 2.60314 5.92913 2.50627C6.01621 2.4094 6.08051 2.29426 6.11731 2.16931L6.21131 1.85031Z" fill="#3E5569"/>
<path fill-rule="evenodd" clip-rule="evenodd" d="M7.99991 6.25391C7.40423 6.25391 6.83295 6.49054 6.41174 6.91174C5.99054 7.33295 5.75391 7.90423 5.75391 8.49991C5.75391 9.09558 5.99054 9.66686 6.41174 10.0881C6.83295 10.5093 7.40423 10.7459 7.99991 10.7459C8.59558 10.7459 9.16686 10.5093 9.58807 10.0881C10.0093 9.66686 10.2459 9.09558 10.2459 8.49991C10.2459 7.90423 10.0093 7.33295 9.58807 6.91174C9.16686 6.49054 8.59558 6.25391 7.99991 6.25391ZM4.75391 8.49991C4.75391 8.07364 4.83787 7.65154 5.00099 7.25772C5.16412 6.86389 5.40322 6.50606 5.70464 6.20464C6.00606 5.90322 6.36389 5.66412 6.75772 5.50099C7.15154 5.33787 7.57364 5.25391 7.99991 5.25391C8.42618 5.25391 8.84827 5.33787 9.2421 5.50099C9.63592 5.66412 9.99376 5.90322 10.2952 6.20464C10.5966 6.50606 10.8357 6.86389 10.9988 7.25772C11.1619 7.65154 11.2459 8.07364 11.2459 8.49991C11.2459 9.3608 10.9039 10.1864 10.2952 10.7952C9.68643 11.4039 8.8608 11.7459 7.99991 11.7459C7.13901 11.7459 6.31338 11.4039 5.70464 10.7952C5.09589 10.1864 4.75391 9.3608 4.75391 8.49991Z" fill="#3E5569"/>
</g>
<defs>
<clipPath id="clip0_380_10595">
<rect width="16" height="16" fill="white" transform="translate(0 0.5)"/>
</clipPath>
</defs>
</svg>
