<svg width="20" height="20" viewBox="0 0 20 20" fill="none" xmlns="http://www.w3.org/2000/svg">
<g clip-path="url(#clip0_917_167)">
<path fill-rule="evenodd" clip-rule="evenodd" d="M8.12442 0C7.95866 0 7.79969 0.065848 7.68248 0.183058C7.56527 0.300269 7.49942 0.45924 7.49942 0.625C7.49942 0.79076 7.56527 0.949732 7.68248 1.06694C7.79969 1.18415 7.95866 1.25 8.12442 1.25H8.74942V2.5875C6.55998 2.90395 4.57163 4.03784 3.18442 5.76104C1.79721 7.48424 1.11408 9.66886 1.27248 11.8754C1.43088 14.0819 2.41905 16.1465 4.03818 17.6539C5.6573 19.1613 7.78723 19.9995 9.99942 20C12.2143 20.004 14.3483 19.1679 15.971 17.6602C17.5936 16.1526 18.5841 14.0858 18.7427 11.8765C18.9013 9.66732 18.2162 7.48015 16.8255 5.75623C15.4349 4.03231 13.4422 2.89993 11.2494 2.5875V1.25H11.8744C12.0402 1.25 12.1991 1.18415 12.3164 1.06694C12.4336 0.949732 12.4994 0.79076 12.4994 0.625C12.4994 0.45924 12.4336 0.300269 12.3164 0.183058C12.1991 0.065848 12.0402 0 11.8744 0L8.12442 0ZM10.6244 7C10.6244 6.83424 10.5586 6.67527 10.4414 6.55806C10.3242 6.44085 10.1652 6.375 9.99942 6.375C9.83366 6.375 9.67469 6.44085 9.55748 6.55806C9.44027 6.67527 9.37442 6.83424 9.37442 7V10.625H5.62442C5.45866 10.625 5.29969 10.6908 5.18248 10.8081C5.06527 10.9253 4.99942 11.0842 4.99942 11.25C4.99942 11.4158 5.06527 11.5747 5.18248 11.6919C5.29969 11.8092 5.45866 11.875 5.62442 11.875H9.99942C10.1652 11.875 10.3242 11.8092 10.4414 11.6919C10.5586 11.5747 10.6244 11.4158 10.6244 11.25V7Z" fill="#3E5569"/>
</g>
<defs>
<clipPath id="clip0_917_167">
<rect width="20" height="20" fill="white"/>
</clipPath>
</defs>
</svg>
