<svg width="16" height="17" viewBox="0 0 16 17" fill="none" xmlns="http://www.w3.org/2000/svg">
<g clip-path="url(#clip0_380_5109)">
<path fill-rule="evenodd" clip-rule="evenodd" d="M12.136 0.826086C12.3571 0.770789 12.5878 0.766584 12.8107 0.813789C13.0337 0.860994 13.2429 0.958369 13.4226 1.09852C13.6023 1.23867 13.7476 1.41792 13.8477 1.62265C13.9477 1.82738 13.9998 2.05222 14 2.28009V3.50009H14.5C14.8978 3.50009 15.2794 3.65812 15.5607 3.93943C15.842 4.22073 16 4.60226 16 5.00009V14.0001C16 14.3979 15.842 14.7794 15.5607 15.0607C15.2794 15.3421 14.8978 15.5001 14.5 15.5001H1.5C1.10218 15.5001 0.720644 15.3421 0.43934 15.0607C0.158035 14.7794 9.80916e-08 14.3979 9.80916e-08 14.0001V5.00009C-0.000139461 4.61394 0.148642 4.24261 0.415377 3.9634C0.682113 3.68419 1.04625 3.51859 1.432 3.50109L12.136 0.826086ZM5.562 3.50009H13V2.28009C12.9998 2.20422 12.9824 2.12939 12.949 2.06126C12.9156 1.99313 12.8672 1.93349 12.8074 1.88686C12.7475 1.84022 12.6779 1.80781 12.6036 1.79208C12.5294 1.77636 12.4526 1.77773 12.379 1.79609L5.562 3.50009ZM1.5 4.50009C1.36739 4.50009 1.24021 4.55276 1.14645 4.64653C1.05268 4.7403 1 4.86748 1 5.00009V14.0001C1 14.1327 1.05268 14.2599 1.14645 14.3536C1.24021 14.4474 1.36739 14.5001 1.5 14.5001H14.5C14.6326 14.5001 14.7598 14.4474 14.8536 14.3536C14.9473 14.2599 15 14.1327 15 14.0001V5.00009C15 4.86748 14.9473 4.7403 14.8536 4.64653C14.7598 4.55276 14.6326 4.50009 14.5 4.50009H1.5Z" fill="#3E5569"/>
</g>
<defs>
<clipPath id="clip0_380_5109">
<rect width="16" height="16" fill="white" transform="translate(0 0.5)"/>
</clipPath>
</defs>
</svg>
